This XML file does not appear to have any style information associated with it. The document tree is shown below.
<mxfile host="app.diagrams.net" agent="Mozilla/5.0 (Windows NT 10.0; Win64; x64) AppleWebKit/537.36 (KHTML, like Gecko) Chrome/140.0.0.0 Safari/537.36" version="28.2.2">
<diagram name="Page-1" id="pdX1J2Xctu114oJfN7Jm">
<mxGraphModel dx="2276" dy="743" grid="1" gridSize="10" guides="1" tooltips="1" connect="1" arrows="1" fold="1" page="1" pageScale="1" pageWidth="850" pageHeight="1100" math="0" shadow="0">
<root>
<mxCell id="0"/>
<mxCell id="1" parent="0"/>
<mxCell id="2" value="MD_JOBS job_id (PK)" style="shape=rectangle;whiteSpace=wrap;html=1;rounded=1;fillColor=#dae8fc;strokeColor=#6c8ebf;" vertex="1" parent="1">
<mxGeometry x="130" y="150" width="90" height="60" as="geometry"/>
</mxCell>
<mxCell id="3" value="MD_JOBS_DET job_id (PK) param_name (SK)" style="shape=rectangle;whiteSpace=wrap;html=1;rounded=1;fillColor=#fff2cc;strokeColor=#d6b656;" vertex="1" parent="1">
<mxGeometry x="-150" y="165" width="200" height="70" as="geometry"/>
</mxCell>
<mxCell id="4" value="MD_JOB_CONFIG job_id (PK) sk (SK) â†’ config_value" style="shape=rectangle;whiteSpace=wrap;html=1;rounded=1;fillColor=#fff2cc;strokeColor=#d6b656;" vertex="1" parent="1">
<mxGeometry x="-150" y="70" width="200" height="70" as="geometry"/>
</mxCell>
<mxCell id="5" value="MD_JOB_EXECUTION job_id (PK) execution_id (SK)" style="shape=rectangle;whiteSpace=wrap;html=1;rounded=1;fillColor=#fff2cc;strokeColor=#d6b656;" vertex="1" parent="1">
<mxGeometry x="-140" y="260" width="200" height="70" as="geometry"/>
</mxCell>
<mxCell id="6" value="MD_DATASETS dataset_id (PK) target_id (FK)" style="shape=rectangle;whiteSpace=wrap;html=1;rounded=1;fillColor=#e1d5e7;strokeColor=#9673a6;" vertex="1" parent="1">
<mxGeometry x="544" y="20" width="180" height="70" as="geometry"/>
</mxCell>
<mxCell id="7" value="MD_SRC source_id (PK)" style="shape=rectangle;whiteSpace=wrap;html=1;rounded=1;fillColor=#f8cecc;strokeColor=#b85450;" vertex="1" parent="1">
<mxGeometry x="300" y="210" width="180" height="60" as="geometry"/>
</mxCell>
<mxCell id="8" value="MD_SRC_DET source_id (PK) detail_name (SK)" style="shape=rectangle;whiteSpace=wrap;html=1;rounded=1;fillColor=#f8cecc;strokeColor=#b85450;" vertex="1" parent="1">
<mxGeometry x="524" y="210" width="200" height="60" as="geometry"/>
</mxCell>
<mxCell id="9" value="MD_TGT target_id (PK)" style="shape=rectangle;whiteSpace=wrap;html=1;rounded=1;fillColor=#d5e8d4;strokeColor=#82b366;" vertex="1" parent="1">
<mxGeometry x="300" y="130" width="180" height="60" as="geometry"/>
</mxCell>
<mxCell id="10" value="MD_TGT_DET target_id (PK) detail_name (SK)" style="shape=rectangle;whiteSpace=wrap;html=1;rounded=1;fillColor=#d5e8d4;strokeColor=#82b366;" vertex="1" parent="1">
<mxGeometry x="524" y="130" width="200" height="60" as="geometry"/>
</mxCell>
<mxCell id="11" style="edgeStyle=none;rounded=0;orthogonalLoop=1;jettySize=auto;html=1;exitX=1;exitY=0.5;exitDx=0;exitDy=0;" edge="1" source="4" target="4" parent="1">
<mxGeometry relative="1" as="geometry"/>
</mxCell>
<mxCell id="12" value="" style="edgeStyle=orthogonalEdgeStyle;fontSize=12;html=1;endArrow=ERzeroToMany;startArrow=ERzeroToOne;rounded=0;entryX=1;entryY=0.75;entryDx=0;entryDy=0;exitX=0.5;exitY=0;exitDx=0;exitDy=0;" edge="1" source="2" target="4" parent="1">
<mxGeometry width="100" height="100" relative="1" as="geometry"/>
</mxCell>
<mxCell id="13" value="" style="edgeStyle=orthogonalEdgeStyle;fontSize=12;html=1;endArrow=ERzeroToMany;startArrow=ERzeroToOne;rounded=0;entryX=1;entryY=0.75;entryDx=0;entryDy=0;exitX=0;exitY=0.25;exitDx=0;exitDy=0;" edge="1" source="2" target="3" parent="1">
<mxGeometry width="100" height="100" relative="1" as="geometry"/>
</mxCell>
<mxCell id="14" value="" style="edgeStyle=orthogonalEdgeStyle;fontSize=12;html=1;endArrow=ERzeroToMany;startArrow=ERzeroToOne;rounded=0;entryX=1;entryY=0.5;entryDx=0;entryDy=0;exitX=0.575;exitY=1.017;exitDx=0;exitDy=0;exitPerimeter=0;" edge="1" source="2" target="5" parent="1">
<mxGeometry width="100" height="100" relative="1" as="geometry"/>
</mxCell>
<mxCell id="15" value="uses target_id" style="edgeStyle=orthogonalEdgeStyle;fontSize=12;html=1;endArrow=ERzeroToMany;startArrow=ERzeroToOne;rounded=0;entryX=0;entryY=0.5;entryDx=0;entryDy=0;exitX=0.75;exitY=0;exitDx=0;exitDy=0;" edge="1" source="2" target="9" parent="1">
<mxGeometry width="100" height="100" relative="1" as="geometry"/>
</mxCell>
<mxCell id="16" value="uses source_id" style="edgeStyle=orthogonalEdgeStyle;fontSize=12;html=1;endArrow=ERzeroToMany;startArrow=ERzeroToOne;rounded=0;entryX=0;entryY=0.75;entryDx=0;entryDy=0;exitX=0.694;exitY=1;exitDx=0;exitDy=0;exitPerimeter=0;" edge="1" source="2" target="7" parent="1">
<mxGeometry width="100" height="100" relative="1" as="geometry"/>
</mxCell>
<mxCell id="17" value="" style="edgeStyle=orthogonalEdgeStyle;fontSize=12;html=1;endArrow=ERzeroToMany;startArrow=ERzeroToOne;rounded=0;exitX=0.994;exitY=0.133;exitDx=0;exitDy=0;exitPerimeter=0;entryX=0;entryY=0.25;entryDx=0;entryDy=0;" edge="1" source="9" target="10" parent="1">
<mxGeometry width="100" height="100" relative="1" as="geometry"/>
</mxCell>
<mxCell id="18" value="" style="edgeStyle=orthogonalEdgeStyle;fontSize=12;html=1;endArrow=ERzeroToMany;startArrow=ERzeroToOne;rounded=0;exitX=0;exitY=0.5;exitDx=0;exitDy=0;entryX=0;entryY=0.75;entryDx=0;entryDy=0;" edge="1" source="9" target="6" parent="1">
<mxGeometry width="100" height="100" relative="1" as="geometry"/>
</mxCell>
<mxCell id="19" value="" style="edgeStyle=orthogonalEdgeStyle;fontSize=12;html=1;endArrow=ERzeroToMany;startArrow=ERzeroToOne;rounded=0;entryX=0;entryY=0.5;entryDx=0;entryDy=0;exitX=1;exitY=0.5;exitDx=0;exitDy=0;" edge="1" source="7" target="8" parent="1">
<mxGeometry width="100" height="100" relative="1" as="geometry"/>
</mxCell>
</root>
</mxGraphModel>
</diagram>
</mxfile>
